HIERARCHY
ROOT root
{
	OFFSET 0.000000 0.000000 0.000000
	CHANNELS 6 Xposition Yposition Zposition Zrotation Yrotation Xrotation
	JOINT lhip
	{
		OFFSET 0.058581 -0.082280 -0.017664
		CHANNELS 3 Zrotation Yrotation Xrotation
		JOINT lknee
		{
			OFFSET 0.043451 -0.386469 0.008037
			CHANNELS 3 Zrotation Yrotation Xrotation
			JOINT lankle
			{
				OFFSET -0.014790 -0.426874 -0.037428
				CHANNELS 3 Zrotation Yrotation Xrotation
				JOINT ltoe
				{
					OFFSET 0.041054 -0.060286 0.122042
					CHANNELS 3 Zrotation Yrotation Xrotation
					End Site
					{
						OFFSET 0.000000 0.000000 0.000000
					}
				}
			}
		}
	}
	JOINT rhip
	{
		OFFSET -0.060310 -0.090513 -0.013543
		CHANNELS 3 Zrotation Yrotation Xrotation
		JOINT rknee
		{
			OFFSET -0.043257 -0.383688 -0.004843
			CHANNELS 3 Zrotation Yrotation Xrotation
			JOINT rankle
			{
				OFFSET 0.019056 -0.420046 -0.034562
				CHANNELS 3 Zrotation Yrotation Xrotation
				JOINT rtoe
				{
					OFFSET -0.034840 -0.062106 0.130323
					CHANNELS 3 Zrotation Yrotation Xrotation
					End Site
					{
						OFFSET 0.000000 0.000000 0.000000
					}
				}
			}
		}
	}
	JOINT lowerback
	{
		OFFSET 0.004439 0.124404 -0.038385
		CHANNELS 3 Zrotation Yrotation Xrotation
		JOINT upperback
		{
			OFFSET 0.004488 0.137956 0.026820
			CHANNELS 3 Zrotation Yrotation Xrotation
			JOINT chest
			{
				OFFSET -0.002265 0.056032 0.002855
				CHANNELS 3 Zrotation Yrotation Xrotation
				JOINT lowerneck
				{
					OFFSET -0.013390 0.211636 -0.033468
					CHANNELS 3 Zrotation Yrotation Xrotation
					JOINT upperneck
					{
						OFFSET 0.010113 0.088937 0.050410
						CHANNELS 3 Zrotation Yrotation Xrotation
						End Site
						{
							OFFSET 0.000000 0.000000 0.000000
						}
					}
				}
				JOINT lclavicle
				{
					OFFSET 0.071702 0.114000 -0.018898
					CHANNELS 3 Zrotation Yrotation Xrotation
					JOINT lshoulder
					{
						OFFSET 0.122921 0.045205 -0.019046
						CHANNELS 3 Zrotation Yrotation Xrotation
						JOINT lelbow
						{
							OFFSET 0.255332 -0.015649 -0.022946
							CHANNELS 3 Zrotation Yrotation Xrotation
							JOINT lwrist
							{
								OFFSET 0.265709 0.012698 -0.007375
								CHANNELS 3 Zrotation Yrotation Xrotation
								End Site
								{
									OFFSET 0.000000 0.000000 0.000000
								}
							}
						}
					}
				}
				JOINT rclavicle
				{
					OFFSET -0.082954 0.112472 -0.023707
					CHANNELS 3 Zrotation Yrotation Xrotation
					JOINT rshoulder
					{
						OFFSET -0.113228 0.046853 -0.008472
						CHANNELS 3 Zrotation Yrotation Xrotation
						JOINT relbow
						{
							OFFSET -0.260127 -0.014369 -0.031269
							CHANNELS 3 Zrotation Yrotation Xrotation
							JOINT rwrist
							{
								OFFSET -0.269108 0.006794 -0.006027
								CHANNELS 3 Zrotation Yrotation Xrotation
								End Site
								{
									OFFSET 0.000000 0.000000 0.000000
								}
							}
						}
					}
				}
			}
		}
	}
}
MOTION
Frames: 16
Frame Time: 0.033333
-1.666245 0.338982 0.995936 90.479059 0.736345 85.236395 -3.276681 -6.607946 7.037552 -4.570089 -28.971320 16.798650 4.226508 7.218582 -25.629455 0.000000 -0.000000 0.000000 -6.568274 13.794238 -19.190244 9.861605 16.958133 53.266112 11.541730 14.457366 -16.208904 0.000000 -0.000000 0.000000 -1.140254 -0.541522 12.915422 2.055358 2.541895 4.876849 0.046615 -0.387858 -4.622942 8.188352 9.701507 5.251471 -1.009731 -6.347276 5.928073 -22.865219 1.611979 2.931132 -53.182856 0.643225 11.120127 5.524132 -38.081799 19.531831 -9.794534 -3.361745 18.292263 26.826227 0.297476 2.326967 51.490847 -3.439608 13.435283 -6.124341 33.263948 15.428134 -11.579074 5.630619 10.089254 
-1.659301 0.338194 0.996673 91.157961 0.638548 85.122761 -3.218500 -6.224805 8.196320 -4.103092 -29.795059 15.476705 4.039872 7.095514 -25.465122 0.000000 -0.000000 0.000000 -7.091090 14.650412 -21.184495 9.734842 16.339469 53.489666 11.541050 14.031537 -16.656937 0.000000 -0.000000 0.000000 -1.567635 -1.640282 13.334977 2.154765 2.164998 4.662050 0.218616 -0.609362 -4.753048 8.229511 9.922731 5.190478 -1.002180 -6.545123 5.657633 -22.684162 0.964690 2.964300 -53.444891 0.117084 11.340579 5.456042 -36.772164 19.764669 -10.196188 -3.307792 18.950663 26.725043 0.266061 2.384950 52.038795 -3.841075 13.573542 -6.346472 33.053839 15.479834 -11.070478 5.509878 10.023248 
-1.651363 0.336276 0.996940 91.540956 0.618935 84.910725 -2.941221 -5.758413 9.561334 -3.710391 -30.560724 14.076913 3.696357 7.031904 -25.414002 0.000000 -0.000000 0.000000 -7.523504 15.316018 -22.727743 9.388498 16.111185 52.057962 11.675556 13.975926 -16.623606 0.000000 -0.000000 0.000000 -1.996501 -2.547822 13.749831 2.294392 1.795353 4.885966 0.474040 -0.771444 -5.064038 8.158554 10.076880 5.285490 -0.946999 -6.737684 5.300395 -22.631241 0.362166 3.050883 -53.768078 -0.617066 11.501968 5.536600 -35.953889 19.524923 -10.460323 -3.200698 19.113460 26.776223 0.358050 2.561538 52.342363 -4.177016 13.681330 -6.453438 32.618137 15.604362 -10.749953 5.478360 10.082823 
-1.641133 0.334443 0.998532 92.193395 1.035921 84.084805 -2.359720 -4.897971 11.639428 -3.060043 -31.747381 12.975555 3.155233 6.740393 -25.816488 0.000000 -0.000000 0.000000 -7.152514 15.161636 -22.481943 8.779963 16.659887 48.665324 11.780214 13.896083 -16.589879 0.000000 -0.000000 0.000000 -1.638096 -3.333825 14.532108 2.478239 1.011556 5.786420 0.671905 -1.075696 -5.858360 7.672333 9.725917 5.619814 -0.697936 -6.357847 4.787542 -23.165335 -0.460112 3.353748 -53.897547 -1.175228 11.488429 5.677143 -35.647824 19.392738 -9.829628 -3.570243 19.075398 26.878526 0.752435 2.899474 52.212515 -4.787498 13.488558 -6.144618 32.023493 16.074955 -11.565184 5.876119 10.783015 
-1.630284 0.333082 1.000306 93.568057 1.721828 83.231715 -1.593510 -3.957845 13.302026 -2.408893 -33.344622 12.823356 2.930982 6.006946 -26.681826 0.000000 -0.000000 0.000000 -6.641087 13.978071 -21.239141 8.050092 17.547937 43.623326 11.940408 13.449465 -16.396210 0.000000 -0.000000 0.000000 -0.444394 -4.120969 15.185797 2.601223 -0.423792 6.940013 0.645594 -1.621284 -6.736014 6.705097 9.073962 5.986232 -0.239435 -5.433240 4.241245 -23.808684 -1.512289 3.903073 -54.075923 -1.875129 11.312978 5.770461 -35.978273 19.433508 -8.660726 -3.746037 18.318397 26.750779 1.143380 3.311479 52.035632 -5.382377 12.973642 -5.593814 31.761918 16.624471 -12.222583 5.885056 11.309295 
-1.620175 0.330035 0.998453 93.923907 1.651422 83.666495 -1.375561 -3.549359 13.345445 -2.492749 -33.877473 13.082707 3.085458 5.947479 -27.265523 0.000000 -0.000000 0.000000 -7.267186 13.742215 -21.985596 7.131866 17.772926 38.462426 12.176405 12.178598 -16.206211 0.000000 -0.000000 0.000000 0.221499 -6.437610 15.925738 1.919072 -2.053953 4.933419 0.183068 -1.200904 -6.214108 6.428742 7.372561 4.405682 0.953997 -5.299807 3.282754 -24.326806 -0.647144 2.762266 -52.690245 -0.946539 10.885402 3.649185 -37.618770 21.473341 -7.950447 -4.258145 17.415961 26.629471 2.177716 4.469123 53.109817 -5.153313 12.821329 -5.885014 30.465835 16.216383 -12.710644 6.071511 12.411112 
-1.607961 0.326760 0.995461 94.131608 1.690613 83.731600 -0.982139 -3.022679 13.975565 -2.532618 -34.263948 13.300634 3.000038 5.631158 -27.968685 0.000000 -0.000000 0.000000 -7.305783 12.984997 -21.837275 5.700021 17.499977 33.034079 11.755502 10.491631 -16.534614 0.000000 -0.000000 0.000000 0.601933 -7.206726 16.096502 1.813939 -3.115792 4.865549 0.230802 -1.427719 -6.463400 5.761084 6.520963 4.641357 1.390996 -4.530225 2.720065 -24.799067 -0.920492 2.776085 -52.145347 -1.300781 10.938758 2.553225 -38.793554 22.436365 -7.130359 -4.167649 16.321222 26.744661 2.462791 4.994856 52.824985 -5.545963 12.503060 -5.741172 30.587339 15.377452 -11.717633 5.153946 11.941577 
-1.594924 0.322593 0.991839 94.052468 1.621226 83.896573 -0.570117 -2.613947 14.555386 -2.777048 -34.472583 13.514198 2.930263 5.365260 -28.711150 0.000000 -0.000000 0.000000 -7.348745 12.147523 -21.623464 4.652737 16.687175 28.199693 11.755447 9.682207 -16.472532 0.000000 -0.000000 0.000000 0.815308 -7.480783 16.055268 1.739220 -3.643898 4.807343 0.357166 -1.837692 -6.497580 5.338146 6.363093 4.627644 1.661734 -4.188442 2.276768 -25.044907 -1.591753 3.168687 -52.192160 -2.388702 11.340400 2.021588 -39.297074 22.671609 -6.227619 -4.365058 15.368304 26.806121 2.271327 4.932572 52.726231 -6.094293 12.559159 -5.686667 30.310062 15.392835 -11.792115 4.812920 11.967368 
-1.580488 0.317730 0.988156 93.812327 1.466831 84.121411 -0.229780 -1.952496 15.140790 -2.935713 -34.754256 13.815996 2.970991 5.064726 -29.448681 0.000000 -0.000000 0.000000 -7.094155 11.140738 -21.440606 4.241926 16.223904 25.184633 11.463707 8.958711 -16.115563 0.000000 -0.000000 0.000000 1.628938 -9.012460 16.020589 1.307812 -5.395541 4.925878 -0.026431 -1.536764 -7.318167 5.191164 4.023791 4.774756 2.812492 -3.505233 1.144597 -25.872350 -1.587079 2.351384 -50.827362 -1.162484 10.743321 0.189463 -40.953330 24.496663 -5.779100 -4.693456 14.854571 26.692932 3.835927 6.601262 53.369121 -5.992892 11.491589 -5.994278 29.275355 14.812213 -11.975282 4.969941 12.630261 
-1.564378 0.312530 0.984544 93.259597 1.070225 84.318048 -0.348411 -1.830127 16.228779 -2.877793 -34.737708 13.557690 2.865027 5.365891 -29.878083 0.000000 -0.000000 0.000000 -6.753041 10.701839 -21.421933 3.820946 15.294626 24.593949 11.522120 7.620416 -16.077297 0.000000 -0.000000 0.000000 1.206429 -8.520507 16.054902 1.435847 -4.950854 4.356089 0.366199 -2.144737 -6.729492 4.699378 5.130882 4.061798 2.289060 -3.125333 1.556954 -25.880768 -2.481069 2.973687 -51.655500 -3.080474 11.724402 0.602057 -40.674712 24.070735 -5.453127 -4.926985 14.434107 27.129453 2.765571 5.624830 52.437460 -6.809422 11.807281 -5.759931 28.994756 14.535262 -11.972027 4.912429 12.536606 
-1.546871 0.305438 0.980680 92.703251 0.646885 84.722254 -0.271365 -1.837538 17.117196 -3.055393 -34.292534 13.436501 2.685720 5.304935 -30.061712 0.000000 -0.000000 0.000000 -6.280771 11.065229 -21.382727 3.493131 14.654673 25.673786 10.853339 6.162984 -15.727588 0.000000 -0.000000 0.000000 0.858968 -8.951169 15.784647 1.567882 -5.160729 4.175447 0.442549 -2.301108 -6.595191 4.535398 4.786250 3.720136 2.384853 -3.199197 1.686469 -25.822642 -2.581259 3.109181 -52.047255 -3.673998 11.941841 0.703537 -41.567296 24.374983 -5.933647 -5.278456 14.058147 26.929139 2.577130 5.531942 52.724106 -7.016810 11.851783 -6.119561 28.362879 14.072881 -11.790808 4.734034 12.126808 
-1.527543 0.298732 0.978674 92.459361 0.241379 84.979614 -0.222295 -1.529694 18.087370 -2.959915 -34.356769 13.519615 2.103281 4.892412 -29.760184 0.000000 -0.000000 0.000000 -5.880292 11.144889 -21.104652 3.636452 14.971888 27.137161 10.651547 7.143696 -14.782074 0.000000 -0.000000 0.000000 0.881422 -9.376644 15.335892 1.620486 -5.616951 4.953716 0.402600 -2.493965 -7.213991 4.319532 4.677174 4.188900 2.330448 -3.215932 1.426879 -25.961573 -2.601877 3.250037 -52.476862 -3.950802 11.826966 1.139698 -42.668612 24.427682 -6.661569 -5.386989 14.089478 26.882601 2.267012 5.561720 52.675095 -7.030252 11.385293 -6.232069 28.046783 14.239129 -11.617653 4.450780 12.002989 
-1.506700 0.291045 0.979343 92.156992 0.144490 85.526374 0.169047 -1.375580 18.498013 -3.314355 -34.386575 14.261153 1.204893 4.537878 -28.591973 0.000000 -0.000000 0.000000 -5.413462 11.615937 -21.253415 4.010083 14.996758 28.248276 10.118177 6.916099 -14.046019 0.000000 -0.000000 0.000000 1.367077 -10.210432 14.552450 1.722600 -5.889640 5.148707 0.195034 -2.602231 -7.320155 4.231719 4.140490 3.867688 2.363912 -2.998414 1.519279 -26.504942 -2.138384 3.233945 -52.628985 -3.945706 11.682276 1.559575 -43.646393 24.009768 -6.072961 -5.677359 13.791661 26.840925 2.142716 5.668183 52.625943 -6.804956 11.198276 -6.456230 27.375190 14.008739 -12.158185 4.334809 11.790743 
-1.483833 0.283009 0.982270 91.957384 0.055226 85.859841 0.721964 -1.269810 18.676149 -4.303169 -34.161710 16.063199 -0.811820 3.295915 -26.465084 0.000000 -0.000000 0.000000 -4.970014 11.673694 -20.261565 4.147714 14.507978 28.304209 9.237894 7.537584 -14.575830 0.000000 -0.000000 0.000000 1.931356 -10.828783 13.761538 1.812259 -6.475689 5.332473 -0.021682 -2.545962 -7.499031 4.268572 3.706677 3.694052 2.544259 -3.029770 1.158062 -26.824904 -1.811464 2.952395 -53.009888 -3.174562 11.710380 1.960681 -44.194904 23.426899 -5.321848 -5.862611 12.820872 26.723167 2.251348 5.960583 52.535684 -6.676790 10.668122 -6.424102 26.853822 14.302162 -12.537849 4.324868 11.654469 
-1.460893 0.274601 0.986238 92.076487 -0.017068 86.172194 1.640394 -1.229427 17.469956 -6.576784 -33.617264 20.228408 -3.122426 0.836643 -23.214477 0.000000 -0.000000 0.000000 -4.223562 11.405085 -18.742394 4.077368 14.529677 27.747310 7.954784 8.181092 -15.290528 0.000000 -0.000000 0.000000 2.290696 -10.763021 12.946734 2.088938 -6.971739 5.345820 -0.115512 -2.537348 -7.473551 4.317839 3.782800 3.434758 2.557527 -3.210822 1.212474 -26.858551 -1.691325 2.739481 -53.620484 -2.553909 11.796721 2.067537 -44.207037 23.464823 -5.286947 -6.170803 12.910307 26.451238 2.063345 5.890801 52.397955 -6.807526 10.054661 -6.053104 26.697297 15.086026 -12.631733 4.549513 11.670019 
-1.436418 0.267130 0.990482 91.851857 -0.157575 86.444446 2.199828 -1.386462 15.322449 -9.516956 -32.977380 26.080069 -6.175092 -1.605164 -18.659763 0.000000 -0.000000 0.000000 -3.451261 11.389241 -16.999544 3.714307 14.546526 26.973356 6.617375 8.922048 -15.982912 0.000000 -0.000000 0.000000 2.835452 -10.346071 11.869852 2.052100 -6.913845 5.632854 -0.416554 -2.337905 -7.734086 3.950686 3.918512 3.663695 2.778144 -3.441519 0.681296 -26.778796 -1.544296 2.601129 -54.050328 -1.639625 11.819516 1.776877 -44.334883 24.591203 -6.516139 -6.186789 13.593063 26.129212 1.647791 5.855883 52.359035 -7.282904 9.184138 -5.460234 27.037815 16.706796 -12.314469 4.749374 11.409876 
